<?xml version="1.0" encoding="UTF-8" standalone="no"?>
<!-- Created with Inkscape (http://www.inkscape.org/) -->

<svg
   width="460"
   height="460"
   viewBox="0 0 460.00001 459.99999"
   version="1.1"
   id="svg1"
   inkscape:version="1.3.2 (091e20ef0f, 2023-11-25)"
   sodipodi:docname="logo-icon-only.svg"
   inkscape:export-filename="logo-icon-only.png"
   inkscape:export-xdpi="96"
   inkscape:export-ydpi="96"
   xmlns:inkscape="http://www.inkscape.org/namespaces/inkscape"
   xmlns:sodipodi="http://sodipodi.sourceforge.net/DTD/sodipodi-0.dtd"
   xmlns:xlink="http://www.w3.org/1999/xlink"
   xmlns="http://www.w3.org/2000/svg"
   xmlns:svg="http://www.w3.org/2000/svg">
  <sodipodi:namedview
     id="namedview1"
     pagecolor="#ffffff"
     bordercolor="#111111"
     borderopacity="1"
     inkscape:showpageshadow="0"
     inkscape:pageopacity="0"
     inkscape:pagecheckerboard="false"
     inkscape:deskcolor="#d1d1d1"
     inkscape:document-units="px"
     inkscape:zoom="0.450044"
     inkscape:cx="33.330074"
     inkscape:cy="257.75258"
     inkscape:window-width="1920"
     inkscape:window-height="1000"
     inkscape:window-x="0"
     inkscape:window-y="50"
     inkscape:window-maximized="1"
     inkscape:current-layer="g2" />
  <defs
     id="defs1">
    <rect
       x="458.78888"
       y="670.90015"
       width="441.26794"
       height="140.19841"
       id="rect4" />
    <linearGradient
       id="linearGradient1"
       inkscape:collect="always">
      <stop
         style="stop-color:#8d1fe0;stop-opacity:1;"
         offset="0"
         id="stop1" />
      <stop
         style="stop-color:#c414d7;stop-opacity:1;"
         offset="0.46271932"
         id="stop7" />
      <stop
         style="stop-color:#ff00c7;stop-opacity:1;"
         offset="1"
         id="stop2" />
    </linearGradient>
    <linearGradient
       inkscape:collect="always"
       xlink:href="#linearGradient1"
       id="linearGradient2-2"
       x1="626.78387"
       y1="411.65302"
       x2="953.83807"
       y2="411.65302"
       gradientUnits="userSpaceOnUse"
       gradientTransform="translate(80.201051,7.028174e-4)" />
  </defs>
  <g
     inkscape:label="Layer 1"
     inkscape:groupmode="layer"
     id="layer1"
     transform="translate(-701.49513,-376.5957)">
    <g
       id="g1"
       transform="translate(-92.939226)">
      <g
         id="g2"
         transform="translate(0,-98.13187)">
        <g
           id="g3"
           transform="translate(-28.504874,164.72756)">
          <g
             id="g4"
             transform="translate(222.5285,128.34766)">
            <path
               id="path1-9"
               style="display:inline;fill:url(#linearGradient2-2);stroke:none;stroke-width:0.246;stroke-dasharray:none;stroke-opacity:1"
               d="m 790.31016,248.24805 a 163.40425,163.40425 0 0 0 -163.4043,163.40429 163.40425,163.40425 0 0 0 163.4043,163.4043 163.40425,163.40425 0 0 0 40.10156,-5.32812 163.40425,163.40425 0 0 0 40.09961,5.32812 163.40425,163.40425 0 0 0 163.40427,-163.4043 163.40425,163.40425 0 0 0 -163.40427,-163.40429 163.40425,163.40425 0 0 0 -39.45312,5.1875 163.40425,163.40425 0 0 0 -40.74805,-5.1875 z m 80.20117,19.1582 a 144.24707,144.24707 0 0 1 144.24807,144.24609 144.24707,144.24707 0 0 1 -144.24807,144.24805 144.24707,144.24707 0 0 1 -3.74023,-0.29492 163.40425,163.40425 0 0 0 86.94336,-143.95313 163.40425,163.40425 0 0 0 -86.19922,-144.00976 144.24707,144.24707 0 0 1 2.99609,-0.23633 z" />
          </g>
          <path
             style="font-size:96px;font-family:Molot;-inkscape-font-specification:'Molot, Normal';text-align:center;text-anchor:middle;white-space:pre;fill:#ffffff;fill-opacity:1;stroke-width:45.0165"
             d="m 1067.7353,615.2514 v -37.62569 h -53.751 v -20.64039 h 46.2259 v -37.62569 h -46.2259 v -16.77031 h 46.2259 l 7.5251,-19.13536 V 464.74861 H 967.11337 V 615.2514 Z m 12.9003,-131.79745 v 27.97083 85.12127 z"
             id="text4"
             aria-label="ECLIPSE"
             sodipodi:nodetypes="cccccccccccccccccc" />
        </g>
      </g>
    </g>
  </g>
</svg>
